ISO-10303-21;
HEADER;
/* Generated by software containing ST-Developer
 * from STEP Tools, Inc. (www.steptools.com) 
 */

FILE_DESCRIPTION(
/* description */ (''),
/* implementation_level */ '2;1');

FILE_NAME(
/* name */ 'antenna mount.step',
/* time_stamp */ '2026-09-27T18:32:03+01:00',
/* author */ (''),
/* organization */ (''),
/* preprocessor_version */ 'ST-DEVELOPER v20.1',
/* originating_system */ 'Autodesk Translation Framework v15.8.0.0',
/* authorisation */ '');

FILE_SCHEMA (('AUTOMOTIVE_DESIGN { 1 0 10303 214 3 1 1 }'));
ENDSEC;

DATA;
#10=MECHANICAL_DESIGN_GEOMETRIC_PRESENTATION_REPRESENTATION('',(#13),#523);
#11=SHAPE_REPRESENTATION_RELATIONSHIP('SRR','None',#530,#12);
#12=ADVANCED_BREP_SHAPE_REPRESENTATION('',(#14),#522);
#13=STYLED_ITEM('',(#539),#14);
#14=MANIFOLD_SOLID_BREP('Body1',#299);
#15=FACE_BOUND('',#48,.T.);
#16=CYLINDRICAL_SURFACE('',#339,2.5);
#17=CYLINDRICAL_SURFACE('',#341,19.);
#18=FACE_OUTER_BOUND('',#33,.T.);
#19=FACE_OUTER_BOUND('',#34,.T.);
#20=FACE_OUTER_BOUND('',#35,.T.);
#21=FACE_OUTER_BOUND('',#36,.T.);
#22=FACE_OUTER_BOUND('',#37,.T.);
#23=FACE_OUTER_BOUND('',#38,.T.);
#24=FACE_OUTER_BOUND('',#39,.T.);
#25=FACE_OUTER_BOUND('',#40,.T.);
#26=FACE_OUTER_BOUND('',#41,.T.);
#27=FACE_OUTER_BOUND('',#42,.T.);
#28=FACE_OUTER_BOUND('',#43,.T.);
#29=FACE_OUTER_BOUND('',#44,.T.);
#30=FACE_OUTER_BOUND('',#45,.T.);
#31=FACE_OUTER_BOUND('',#46,.T.);
#32=FACE_OUTER_BOUND('',#47,.T.);
#33=EDGE_LOOP('',(#187,#188,#189,#190));
#34=EDGE_LOOP('',(#191,#192,#193,#194));
#35=EDGE_LOOP('',(#195,#196,#197,#198));
#36=EDGE_LOOP('',(#199,#200,#201,#202));
#37=EDGE_LOOP('',(#203,#204,#205,#206));
#38=EDGE_LOOP('',(#207,#208,#209,#210));
#39=EDGE_LOOP('',(#211,#212,#213,#214));
#40=EDGE_LOOP('',(#215,#216,#217,#218,#219,#220));
#41=EDGE_LOOP('',(#221,#222));
#42=EDGE_LOOP('',(#223,#224,#225,#226));
#43=EDGE_LOOP('',(#227,#228,#229,#230,#231,#232,#233));
#44=EDGE_LOOP('',(#234,#235,#236));
#45=EDGE_LOOP('',(#237,#238,#239,#240,#241,#242,#243,#244,#245,#246,#247,
#248));
#46=EDGE_LOOP('',(#249,#250,#251,#252,#253,#254,#255,#256,#257,#258,#259,
#260,#261,#262,#263,#264,#265,#266,#267,#268));
#47=EDGE_LOOP('',(#269));
#48=EDGE_LOOP('',(#270));
#49=CIRCLE('',#314,2.5);
#50=CIRCLE('',#315,19.);
#51=CIRCLE('',#318,19.);
#52=CIRCLE('',#319,2.5);
#53=CIRCLE('',#325,19.);
#54=CIRCLE('',#326,19.);
#55=CIRCLE('',#327,2.5);
#56=CIRCLE('',#329,19.);
#57=CIRCLE('',#332,19.);
#58=CIRCLE('',#333,19.);
#59=CIRCLE('',#334,2.5);
#60=CIRCLE('',#335,2.5);
#61=CIRCLE('',#337,19.);
#62=CIRCLE('',#338,19.);
#63=CIRCLE('',#340,2.5);
#64=CIRCLE('',#342,19.);
#65=LINE('',#438,#91);
#66=LINE('',#442,#92);
#67=LINE('',#446,#93);
#68=LINE('',#448,#94);
#69=LINE('',#449,#95);
#70=LINE('',#453,#96);
#71=LINE('',#457,#97);
#72=LINE('',#461,#98);
#73=LINE('',#463,#99);
#74=LINE('',#464,#100);
#75=LINE('',#467,#101);
#76=LINE('',#469,#102);
#77=LINE('',#470,#103);
#78=LINE('',#474,#104);
#79=LINE('',#476,#105);
#80=LINE('',#478,#106);
#81=LINE('',#479,#107);
#82=LINE('',#482,#108);
#83=LINE('',#484,#109);
#84=LINE('',#485,#110);
#85=LINE('',#495,#111);
#86=LINE('',#497,#112);
#87=LINE('',#499,#113);
#88=LINE('',#500,#114);
#89=LINE('',#513,#115);
#90=LINE('',#517,#116);
#91=VECTOR('',#348,10.);
#92=VECTOR('',#351,10.);
#93=VECTOR('',#356,10.);
#94=VECTOR('',#357,10.);
#95=VECTOR('',#358,10.);
#96=VECTOR('',#361,10.);
#97=VECTOR('',#364,10.);
#98=VECTOR('',#369,10.);
#99=VECTOR('',#370,10.);
#100=VECTOR('',#371,10.);
#101=VECTOR('',#374,10.);
#102=VECTOR('',#375,10.);
#103=VECTOR('',#376,10.);
#104=VECTOR('',#379,10.);
#105=VECTOR('',#380,10.);
#106=VECTOR('',#381,10.);
#107=VECTOR('',#382,10.);
#108=VECTOR('',#385,10.);
#109=VECTOR('',#386,10.);
#110=VECTOR('',#387,10.);
#111=VECTOR('',#402,10.);
#112=VECTOR('',#403,10.);
#113=VECTOR('',#404,10.);
#114=VECTOR('',#405,10.);
#115=VECTOR('',#424,2.5);
#116=VECTOR('',#429,19.);
#117=VERTEX_POINT('',#436);
#118=VERTEX_POINT('',#437);
#119=VERTEX_POINT('',#439);
#120=VERTEX_POINT('',#441);
#121=VERTEX_POINT('',#445);
#122=VERTEX_POINT('',#447);
#123=VERTEX_POINT('',#451);
#124=VERTEX_POINT('',#452);
#125=VERTEX_POINT('',#454);
#126=VERTEX_POINT('',#456);
#127=VERTEX_POINT('',#460);
#128=VERTEX_POINT('',#462);
#129=VERTEX_POINT('',#466);
#130=VERTEX_POINT('',#468);
#131=VERTEX_POINT('',#472);
#132=VERTEX_POINT('',#473);
#133=VERTEX_POINT('',#475);
#134=VERTEX_POINT('',#477);
#135=VERTEX_POINT('',#481);
#136=VERTEX_POINT('',#483);
#137=VERTEX_POINT('',#493);
#138=VERTEX_POINT('',#494);
#139=VERTEX_POINT('',#496);
#140=VERTEX_POINT('',#498);
#141=VERTEX_POINT('',#504);
#142=VERTEX_POINT('',#508);
#143=VERTEX_POINT('',#512);
#144=VERTEX_POINT('',#516);
#145=EDGE_CURVE('',#117,#118,#65,.T.);
#146=EDGE_CURVE('',#117,#119,#49,.T.);
#147=EDGE_CURVE('',#120,#119,#66,.T.);
#148=EDGE_CURVE('',#120,#118,#50,.T.);
#149=EDGE_CURVE('',#119,#121,#67,.T.);
#150=EDGE_CURVE('',#122,#121,#68,.T.);
#151=EDGE_CURVE('',#120,#122,#69,.T.);
#152=EDGE_CURVE('',#123,#124,#70,.T.);
#153=EDGE_CURVE('',#123,#125,#51,.T.);
#154=EDGE_CURVE('',#126,#125,#71,.T.);
#155=EDGE_CURVE('',#126,#124,#52,.T.);
#156=EDGE_CURVE('',#125,#127,#72,.T.);
#157=EDGE_CURVE('',#128,#127,#73,.T.);
#158=EDGE_CURVE('',#126,#128,#74,.T.);
#159=EDGE_CURVE('',#124,#129,#75,.T.);
#160=EDGE_CURVE('',#130,#129,#76,.T.);
#161=EDGE_CURVE('',#123,#130,#77,.T.);
#162=EDGE_CURVE('',#131,#132,#78,.T.);
#163=EDGE_CURVE('',#131,#133,#79,.T.);
#164=EDGE_CURVE('',#134,#133,#80,.T.);
#165=EDGE_CURVE('',#132,#134,#81,.T.);
#166=EDGE_CURVE('',#118,#135,#82,.T.);
#167=EDGE_CURVE('',#136,#135,#83,.T.);
#168=EDGE_CURVE('',#117,#136,#84,.T.);
#169=EDGE_CURVE('',#135,#134,#53,.T.);
#170=EDGE_CURVE('',#133,#130,#54,.T.);
#171=EDGE_CURVE('',#129,#136,#55,.T.);
#172=EDGE_CURVE('',#132,#131,#56,.T.);
#173=EDGE_CURVE('',#137,#138,#85,.T.);
#174=EDGE_CURVE('',#137,#139,#86,.T.);
#175=EDGE_CURVE('',#140,#139,#87,.T.);
#176=EDGE_CURVE('',#138,#140,#88,.T.);
#177=EDGE_CURVE('',#127,#140,#57,.T.);
#178=EDGE_CURVE('',#139,#122,#58,.T.);
#179=EDGE_CURVE('',#121,#141,#59,.T.);
#180=EDGE_CURVE('',#141,#128,#60,.T.);
#181=EDGE_CURVE('',#138,#142,#61,.T.);
#182=EDGE_CURVE('',#142,#137,#62,.T.);
#183=EDGE_CURVE('',#141,#143,#89,.T.);
#184=EDGE_CURVE('',#143,#143,#63,.T.);
#185=EDGE_CURVE('',#142,#144,#90,.T.);
#186=EDGE_CURVE('',#144,#144,#64,.T.);
#187=ORIENTED_EDGE('',*,*,#145,.F.);
#188=ORIENTED_EDGE('',*,*,#146,.T.);
#189=ORIENTED_EDGE('',*,*,#147,.F.);
#190=ORIENTED_EDGE('',*,*,#148,.T.);
#191=ORIENTED_EDGE('',*,*,#147,.T.);
#192=ORIENTED_EDGE('',*,*,#149,.T.);
#193=ORIENTED_EDGE('',*,*,#150,.F.);
#194=ORIENTED_EDGE('',*,*,#151,.F.);
#195=ORIENTED_EDGE('',*,*,#152,.F.);
#196=ORIENTED_EDGE('',*,*,#153,.T.);
#197=ORIENTED_EDGE('',*,*,#154,.F.);
#198=ORIENTED_EDGE('',*,*,#155,.T.);
#199=ORIENTED_EDGE('',*,*,#154,.T.);
#200=ORIENTED_EDGE('',*,*,#156,.T.);
#201=ORIENTED_EDGE('',*,*,#157,.F.);
#202=ORIENTED_EDGE('',*,*,#158,.F.);
#203=ORIENTED_EDGE('',*,*,#152,.T.);
#204=ORIENTED_EDGE('',*,*,#159,.T.);
#205=ORIENTED_EDGE('',*,*,#160,.F.);
#206=ORIENTED_EDGE('',*,*,#161,.F.);
#207=ORIENTED_EDGE('',*,*,#162,.F.);
#208=ORIENTED_EDGE('',*,*,#163,.T.);
#209=ORIENTED_EDGE('',*,*,#164,.F.);
#210=ORIENTED_EDGE('',*,*,#165,.F.);
#211=ORIENTED_EDGE('',*,*,#145,.T.);
#212=ORIENTED_EDGE('',*,*,#166,.T.);
#213=ORIENTED_EDGE('',*,*,#167,.F.);
#214=ORIENTED_EDGE('',*,*,#168,.F.);
#215=ORIENTED_EDGE('',*,*,#167,.T.);
#216=ORIENTED_EDGE('',*,*,#169,.T.);
#217=ORIENTED_EDGE('',*,*,#164,.T.);
#218=ORIENTED_EDGE('',*,*,#170,.T.);
#219=ORIENTED_EDGE('',*,*,#160,.T.);
#220=ORIENTED_EDGE('',*,*,#171,.T.);
#221=ORIENTED_EDGE('',*,*,#162,.T.);
#222=ORIENTED_EDGE('',*,*,#172,.T.);
#223=ORIENTED_EDGE('',*,*,#173,.F.);
#224=ORIENTED_EDGE('',*,*,#174,.T.);
#225=ORIENTED_EDGE('',*,*,#175,.F.);
#226=ORIENTED_EDGE('',*,*,#176,.F.);
#227=ORIENTED_EDGE('',*,*,#157,.T.);
#228=ORIENTED_EDGE('',*,*,#177,.T.);
#229=ORIENTED_EDGE('',*,*,#175,.T.);
#230=ORIENTED_EDGE('',*,*,#178,.T.);
#231=ORIENTED_EDGE('',*,*,#150,.T.);
#232=ORIENTED_EDGE('',*,*,#179,.T.);
#233=ORIENTED_EDGE('',*,*,#180,.T.);
#234=ORIENTED_EDGE('',*,*,#173,.T.);
#235=ORIENTED_EDGE('',*,*,#181,.T.);
#236=ORIENTED_EDGE('',*,*,#182,.T.);
#237=ORIENTED_EDGE('',*,*,#158,.T.);
#238=ORIENTED_EDGE('',*,*,#180,.F.);
#239=ORIENTED_EDGE('',*,*,#183,.T.);
#240=ORIENTED_EDGE('',*,*,#184,.T.);
#241=ORIENTED_EDGE('',*,*,#183,.F.);
#242=ORIENTED_EDGE('',*,*,#179,.F.);
#243=ORIENTED_EDGE('',*,*,#149,.F.);
#244=ORIENTED_EDGE('',*,*,#146,.F.);
#245=ORIENTED_EDGE('',*,*,#168,.T.);
#246=ORIENTED_EDGE('',*,*,#171,.F.);
#247=ORIENTED_EDGE('',*,*,#159,.F.);
#248=ORIENTED_EDGE('',*,*,#155,.F.);
#249=ORIENTED_EDGE('',*,*,#181,.F.);
#250=ORIENTED_EDGE('',*,*,#176,.T.);
#251=ORIENTED_EDGE('',*,*,#177,.F.);
#252=ORIENTED_EDGE('',*,*,#156,.F.);
#253=ORIENTED_EDGE('',*,*,#153,.F.);
#254=ORIENTED_EDGE('',*,*,#161,.T.);
#255=ORIENTED_EDGE('',*,*,#170,.F.);
#256=ORIENTED_EDGE('',*,*,#163,.F.);
#257=ORIENTED_EDGE('',*,*,#172,.F.);
#258=ORIENTED_EDGE('',*,*,#165,.T.);
#259=ORIENTED_EDGE('',*,*,#169,.F.);
#260=ORIENTED_EDGE('',*,*,#166,.F.);
#261=ORIENTED_EDGE('',*,*,#148,.F.);
#262=ORIENTED_EDGE('',*,*,#151,.T.);
#263=ORIENTED_EDGE('',*,*,#178,.F.);
#264=ORIENTED_EDGE('',*,*,#174,.F.);
#265=ORIENTED_EDGE('',*,*,#182,.F.);
#266=ORIENTED_EDGE('',*,*,#185,.T.);
#267=ORIENTED_EDGE('',*,*,#186,.T.);
#268=ORIENTED_EDGE('',*,*,#185,.F.);
#269=ORIENTED_EDGE('',*,*,#186,.F.);
#270=ORIENTED_EDGE('',*,*,#184,.F.);
#271=PLANE('',#313);
#272=PLANE('',#316);
#273=PLANE('',#317);
#274=PLANE('',#320);
#275=PLANE('',#321);
#276=PLANE('',#322);
#277=PLANE('',#323);
#278=PLANE('',#324);
#279=PLANE('',#328);
#280=PLANE('',#330);
#281=PLANE('',#331);
#282=PLANE('',#336);
#283=PLANE('',#343);
#284=ADVANCED_FACE('',(#18),#271,.T.);
#285=ADVANCED_FACE('',(#19),#272,.T.);
#286=ADVANCED_FACE('',(#20),#273,.T.);
#287=ADVANCED_FACE('',(#21),#274,.T.);
#288=ADVANCED_FACE('',(#22),#275,.T.);
#289=ADVANCED_FACE('',(#23),#276,.T.);
#290=ADVANCED_FACE('',(#24),#277,.T.);
#291=ADVANCED_FACE('',(#25),#278,.T.);
#292=ADVANCED_FACE('',(#26),#279,.T.);
#293=ADVANCED_FACE('',(#27),#280,.T.);
#294=ADVANCED_FACE('',(#28),#281,.T.);
#295=ADVANCED_FACE('',(#29),#282,.T.);
#296=ADVANCED_FACE('',(#30),#16,.F.);
#297=ADVANCED_FACE('',(#31),#17,.T.);
#298=ADVANCED_FACE('',(#32,#15),#283,.F.);
#299=CLOSED_SHELL('',(#284,#285,#286,#287,#288,#289,#290,#291,#292,#293,
#294,#295,#296,#297,#298));
#300=DERIVED_UNIT_ELEMENT(#302,1.);
#301=DERIVED_UNIT_ELEMENT(#525,-3.);
#302=(
MASS_UNIT()
NAMED_UNIT(*)
SI_UNIT(.KILO.,.GRAM.)
);
#303=DERIVED_UNIT((#300,#301));
#304=MEASURE_REPRESENTATION_ITEM('density measure',
POSITIVE_RATIO_MEASURE(7850.),#303);
#305=PROPERTY_DEFINITION_REPRESENTATION(#310,#307);
#306=PROPERTY_DEFINITION_REPRESENTATION(#311,#308);
#307=REPRESENTATION('material name',(#309),#522);
#308=REPRESENTATION('density',(#304),#522);
#309=DESCRIPTIVE_REPRESENTATION_ITEM('Steel','Steel');
#310=PROPERTY_DEFINITION('material property','material name',#532);
#311=PROPERTY_DEFINITION('material property','density of part',#532);
#312=AXIS2_PLACEMENT_3D('',#434,#344,#345);
#313=AXIS2_PLACEMENT_3D('',#435,#346,#347);
#314=AXIS2_PLACEMENT_3D('',#440,#349,#350);
#315=AXIS2_PLACEMENT_3D('',#443,#352,#353);
#316=AXIS2_PLACEMENT_3D('',#444,#354,#355);
#317=AXIS2_PLACEMENT_3D('',#450,#359,#360);
#318=AXIS2_PLACEMENT_3D('',#455,#362,#363);
#319=AXIS2_PLACEMENT_3D('',#458,#365,#366);
#320=AXIS2_PLACEMENT_3D('',#459,#367,#368);
#321=AXIS2_PLACEMENT_3D('',#465,#372,#373);
#322=AXIS2_PLACEMENT_3D('',#471,#377,#378);
#323=AXIS2_PLACEMENT_3D('',#480,#383,#384);
#324=AXIS2_PLACEMENT_3D('',#486,#388,#389);
#325=AXIS2_PLACEMENT_3D('',#487,#390,#391);
#326=AXIS2_PLACEMENT_3D('',#488,#392,#393);
#327=AXIS2_PLACEMENT_3D('',#489,#394,#395);
#328=AXIS2_PLACEMENT_3D('',#490,#396,#397);
#329=AXIS2_PLACEMENT_3D('',#491,#398,#399);
#330=AXIS2_PLACEMENT_3D('',#492,#400,#401);
#331=AXIS2_PLACEMENT_3D('',#501,#406,#407);
#332=AXIS2_PLACEMENT_3D('',#502,#408,#409);
#333=AXIS2_PLACEMENT_3D('',#503,#410,#411);
#334=AXIS2_PLACEMENT_3D('',#505,#412,#413);
#335=AXIS2_PLACEMENT_3D('',#506,#414,#415);
#336=AXIS2_PLACEMENT_3D('',#507,#416,#417);
#337=AXIS2_PLACEMENT_3D('',#509,#418,#419);
#338=AXIS2_PLACEMENT_3D('',#510,#420,#421);
#339=AXIS2_PLACEMENT_3D('',#511,#422,#423);
#340=AXIS2_PLACEMENT_3D('',#514,#425,#426);
#341=AXIS2_PLACEMENT_3D('',#515,#427,#428);
#342=AXIS2_PLACEMENT_3D('',#518,#430,#431);
#343=AXIS2_PLACEMENT_3D('',#519,#432,#433);
#344=DIRECTION('axis',(0.,0.,1.));
#345=DIRECTION('refdir',(1.,0.,0.));
#346=DIRECTION('center_axis',(-1.,-1.38777878078163E-17,1.86101134502792E-14));
#347=DIRECTION('ref_axis',(1.38777878078163E-17,-1.,-4.81482486097103E-32));
#348=DIRECTION('',(-1.86101134502792E-14,8.25015066384396E-30,-1.));
#349=DIRECTION('center_axis',(1.,1.38777878078163E-17,-1.86101134502792E-14));
#350=DIRECTION('ref_axis',(1.38777878078163E-17,-1.,-4.81482486097103E-32));
#351=DIRECTION('',(1.86101134502792E-14,-8.25015066384396E-30,1.));
#352=DIRECTION('center_axis',(-1.,-1.38777878078163E-17,1.86101134502792E-14));
#353=DIRECTION('ref_axis',(1.38777878078163E-17,-1.,-4.81482486097103E-32));
#354=DIRECTION('center_axis',(-4.44089209850063E-16,-1.,1.4399913510546E-32));
#355=DIRECTION('ref_axis',(8.64685934936804E-17,-2.39998558509088E-32,1.));
#356=DIRECTION('',(-1.,4.44089209850063E-16,0.));
#357=DIRECTION('',(8.64685934936804E-17,-2.39998558509088E-32,1.));
#358=DIRECTION('',(-1.,4.44089209850063E-16,0.));
#359=DIRECTION('center_axis',(-1.,-1.38777878078163E-17,1.86101134502792E-14));
#360=DIRECTION('ref_axis',(1.38777878078163E-17,-1.,-4.81482486097103E-32));
#361=DIRECTION('',(-1.86101134502792E-14,2.67729638154577E-16,-1.));
#362=DIRECTION('center_axis',(-1.,-1.38777878078163E-17,1.86101134502792E-14));
#363=DIRECTION('ref_axis',(1.38777878078163E-17,-1.,-4.81482486097103E-32));
#364=DIRECTION('',(1.86101134502792E-14,-8.25015066384396E-30,1.));
#365=DIRECTION('center_axis',(1.,1.38777878078163E-17,-1.86101134502792E-14));
#366=DIRECTION('ref_axis',(1.38777878078163E-17,-1.,-4.81482486097103E-32));
#367=DIRECTION('center_axis',(-4.44089209850063E-16,-1.,1.4399913510546E-32));
#368=DIRECTION('ref_axis',(8.64685934936804E-17,-2.39998558509088E-32,1.));
#369=DIRECTION('',(-1.,4.44089209850063E-16,0.));
#370=DIRECTION('',(8.64685934936804E-17,-2.39998558509088E-32,1.));
#371=DIRECTION('',(-1.,4.44089209850063E-16,0.));
#372=DIRECTION('center_axis',(4.44089209850063E-16,1.,2.67729638154568E-16));
#373=DIRECTION('ref_axis',(-8.64685934936803E-17,2.67729638154568E-16,-1.));
#374=DIRECTION('',(-1.,4.44089209850063E-16,0.));
#375=DIRECTION('',(-8.64685934936803E-17,2.67729638154568E-16,-1.));
#376=DIRECTION('',(-1.,4.44089209850063E-16,0.));
#377=DIRECTION('center_axis',(-4.44089209850063E-16,-1.,1.43999135105451E-32));
#378=DIRECTION('ref_axis',(8.64685934936752E-17,-2.39998558509073E-32,1.));
#379=DIRECTION('',(-1.86101134502792E-14,8.25015066384396E-30,-1.));
#380=DIRECTION('',(-1.,4.44089209850063E-16,0.));
#381=DIRECTION('',(8.64685934936752E-17,-2.39998558509073E-32,1.));
#382=DIRECTION('',(-1.,4.44089209850063E-16,0.));
#383=DIRECTION('center_axis',(4.44089209850063E-16,1.,-1.4399913510546E-32));
#384=DIRECTION('ref_axis',(-8.64685934936804E-17,2.39998558509088E-32,-1.));
#385=DIRECTION('',(-1.,4.44089209850063E-16,0.));
#386=DIRECTION('',(-8.64685934936804E-17,2.39998558509088E-32,-1.));
#387=DIRECTION('',(-1.,4.44089209850063E-16,0.));
#388=DIRECTION('center_axis',(-1.,2.77555756156284E-16,8.64685934936768E-17));
#389=DIRECTION('ref_axis',(-2.77555756156284E-16,-1.,-7.74796963004569E-62));
#390=DIRECTION('center_axis',(-1.,2.77555756156284E-16,8.64685934936799E-17));
#391=DIRECTION('ref_axis',(-2.77555756156284E-16,-1.,-2.66451925533709E-49));
#392=DIRECTION('center_axis',(-1.,2.77555756156284E-16,8.64685934936799E-17));
#393=DIRECTION('ref_axis',(-2.77555756156284E-16,-1.,-2.66451925533709E-49));
#394=DIRECTION('center_axis',(1.,-2.77555756156284E-16,-8.64685934936768E-17));
#395=DIRECTION('ref_axis',(-2.77555756156284E-16,-1.,-7.74796963004569E-62));
#396=DIRECTION('center_axis',(-1.,-1.38777878078163E-17,1.86101134502792E-14));
#397=DIRECTION('ref_axis',(1.38777878078163E-17,-1.,-4.81482486097103E-32));
#398=DIRECTION('center_axis',(-1.,-1.38777878078163E-17,1.86101134502792E-14));
#399=DIRECTION('ref_axis',(1.38777878078163E-17,-1.,-4.81482486097103E-32));
#400=DIRECTION('center_axis',(4.44089209850063E-16,1.,-1.43999135105451E-32));
#401=DIRECTION('ref_axis',(-8.64685934936752E-17,2.39998558509073E-32,-1.));
#402=DIRECTION('',(1.86101134502792E-14,-8.25015066384396E-30,1.));
#403=DIRECTION('',(-1.,4.44089209850063E-16,0.));
#404=DIRECTION('',(-8.64685934936752E-17,2.39998558509073E-32,-1.));
#405=DIRECTION('',(-1.,4.44089209850063E-16,0.));
#406=DIRECTION('center_axis',(-1.,2.77555756156284E-16,8.64685934936768E-17));
#407=DIRECTION('ref_axis',(-2.77555756156284E-16,-1.,-7.74796963004569E-62));
#408=DIRECTION('center_axis',(-1.,2.77555756156284E-16,8.64685934936799E-17));
#409=DIRECTION('ref_axis',(-2.77555756156284E-16,-1.,-2.66451925533709E-49));
#410=DIRECTION('center_axis',(-1.,2.77555756156284E-16,8.64685934936799E-17));
#411=DIRECTION('ref_axis',(-2.77555756156284E-16,-1.,-2.66451925533709E-49));
#412=DIRECTION('center_axis',(1.,-2.77555756156284E-16,-8.64685934936768E-17));
#413=DIRECTION('ref_axis',(-2.77555756156284E-16,-1.,-7.74796963004569E-62));
#414=DIRECTION('center_axis',(1.,-2.77555756156284E-16,-8.64685934936768E-17));
#415=DIRECTION('ref_axis',(-2.77555756156284E-16,-1.,-7.74796963004569E-62));
#416=DIRECTION('center_axis',(-1.,-1.38777878078163E-17,1.86101134502792E-14));
#417=DIRECTION('ref_axis',(1.38777878078163E-17,-1.,-4.81482486097103E-32));
#418=DIRECTION('center_axis',(-1.,-1.38777878078163E-17,1.86101134502792E-14));
#419=DIRECTION('ref_axis',(1.38777878078163E-17,-1.,-4.81482486097103E-32));
#420=DIRECTION('center_axis',(-1.,-1.38777878078163E-17,1.86101134502792E-14));
#421=DIRECTION('ref_axis',(1.38777878078163E-17,-1.,-4.81482486097103E-32));
#422=DIRECTION('center_axis',(-1.,0.,2.1316282072803E-14));
#423=DIRECTION('ref_axis',(0.,-1.,2.47674590848208E-31));
#424=DIRECTION('',(1.,0.,-2.1316282072803E-14));
#425=DIRECTION('center_axis',(1.,1.38777878078163E-17,-1.86101134502792E-14));
#426=DIRECTION('ref_axis',(1.38777878078163E-17,-1.,-4.81482486097103E-32));
#427=DIRECTION('center_axis',(-1.,0.,2.1316282072803E-14));
#428=DIRECTION('ref_axis',(0.,-1.,2.47674590848207E-31));
#429=DIRECTION('',(1.,0.,-2.1316282072803E-14));
#430=DIRECTION('center_axis',(-1.,-1.38777878078163E-17,1.86101134502792E-14));
#431=DIRECTION('ref_axis',(1.38777878078163E-17,-1.,-4.81482486097103E-32));
#432=DIRECTION('center_axis',(-1.,-1.38777878078163E-17,1.86101134502792E-14));
#433=DIRECTION('ref_axis',(1.38777878078163E-17,-1.,-4.81482486097103E-32));
#434=CARTESIAN_POINT('',(0.,0.,0.));
#435=CARTESIAN_POINT('Origin',(347.,-23.7314358541022,195.180134048896));
#436=CARTESIAN_POINT('',(347.,-24.4814358541022,192.795286045361));
#437=CARTESIAN_POINT('',(347.,-24.4814358541022,176.194942451239));
#438=CARTESIAN_POINT('',(347.,-24.4814358541022,193.987710047128));
#439=CARTESIAN_POINT('',(347.,-22.9814358541022,192.795286045361));
#440=CARTESIAN_POINT('Origin',(347.,-23.7314358541022,195.180134048896));
#441=CARTESIAN_POINT('',(347.,-22.9814358541022,176.194942451239));
#442=CARTESIAN_POINT('',(347.,-22.9814358541022,185.687538250068));
#443=CARTESIAN_POINT('Origin',(347.,-23.7314358541022,195.180134048896));
#444=CARTESIAN_POINT('Origin',(352.,-22.9814358541022,176.194942451239));
#445=CARTESIAN_POINT('',(342.,-22.9814358541022,192.79528604536));
#446=CARTESIAN_POINT('',(352.,-22.9814358541022,192.79528604536));
#447=CARTESIAN_POINT('',(342.,-22.9814358541022,176.194942451239));
#448=CARTESIAN_POINT('',(342.,-22.9814358541022,192.79528604536));
#449=CARTESIAN_POINT('',(352.,-22.9814358541022,176.194942451239));
#450=CARTESIAN_POINT('Origin',(347.,-23.7314358541022,195.180134048896));
#451=CARTESIAN_POINT('',(347.,-24.4319279236933,214.16721678587));
#452=CARTESIAN_POINT('',(347.,-24.4319279236933,197.579990473867));
#453=CARTESIAN_POINT('',(347.,-24.4319279236933,204.673675417383));
#454=CARTESIAN_POINT('',(347.,-22.9319279236933,214.163305203091));
#455=CARTESIAN_POINT('Origin',(347.,-23.7314358541022,195.180134048896));
#456=CARTESIAN_POINT('',(347.,-22.9319279236933,197.548844049982));
#457=CARTESIAN_POINT('',(347.,-22.9319279236933,196.364489049439));
#458=CARTESIAN_POINT('Origin',(347.,-23.7314358541022,195.180134048896));
#459=CARTESIAN_POINT('Origin',(352.,-22.9319279236933,197.548844049982));
#460=CARTESIAN_POINT('',(342.,-22.9319279236933,214.163305203091));
#461=CARTESIAN_POINT('',(352.,-22.9319279236933,214.163305203091));
#462=CARTESIAN_POINT('',(342.,-22.9319279236933,197.548844049982));
#463=CARTESIAN_POINT('',(342.,-22.9319279236933,197.548844049982));
#464=CARTESIAN_POINT('',(352.,-22.9319279236933,197.548844049982));
#465=CARTESIAN_POINT('Origin',(352.,-24.4319279236933,214.16721678587));
#466=CARTESIAN_POINT('',(342.,-24.4319279236933,197.579990473867));
#467=CARTESIAN_POINT('',(352.,-24.4319279236933,197.579990473867));
#468=CARTESIAN_POINT('',(342.,-24.4319279236933,214.16721678587));
#469=CARTESIAN_POINT('',(342.,-24.4319279236933,197.579990473867));
#470=CARTESIAN_POINT('',(352.,-24.4319279236933,214.16721678587));
#471=CARTESIAN_POINT('Origin',(352.,-26.9319279236933,176.451630357671));
#472=CARTESIAN_POINT('',(352.,-26.9319279236933,213.908637740135));
#473=CARTESIAN_POINT('',(352.,-26.9319279236933,176.451630357671));
#474=CARTESIAN_POINT('',(352.,-26.9319279236933,185.815882203284));
#475=CARTESIAN_POINT('',(342.,-26.9319279236933,213.908637740135));
#476=CARTESIAN_POINT('',(352.,-26.9319279236933,213.908637740135));
#477=CARTESIAN_POINT('',(342.,-26.9319279236933,176.451630357671));
#478=CARTESIAN_POINT('',(342.,-26.9319279236933,213.908637740135));
#479=CARTESIAN_POINT('',(352.,-26.9319279236933,176.451630357671));
#480=CARTESIAN_POINT('Origin',(352.,-24.4814358541022,192.79528604536));
#481=CARTESIAN_POINT('',(342.,-24.4814358541022,176.194942451239));
#482=CARTESIAN_POINT('',(352.,-24.4814358541022,176.194942451239));
#483=CARTESIAN_POINT('',(342.,-24.4814358541022,192.79528604536));
#484=CARTESIAN_POINT('',(342.,-24.4814358541022,192.79528604536));
#485=CARTESIAN_POINT('',(352.,-24.4814358541022,192.79528604536));
#486=CARTESIAN_POINT('Origin',(342.,-25.6819279236933,195.181079618555));
#487=CARTESIAN_POINT('Origin',(342.,-23.7314358541022,195.180134048903));
#488=CARTESIAN_POINT('Origin',(342.,-23.7314358541022,195.180134048903));
#489=CARTESIAN_POINT('Origin',(342.,-23.7314358541022,195.180134048903));
#490=CARTESIAN_POINT('Origin',(352.,-23.7314358541022,195.180134048896));
#491=CARTESIAN_POINT('Origin',(352.,-23.7314358541022,195.180134048896));
#492=CARTESIAN_POINT('Origin',(352.,-20.4319279236933,213.891447402518));
#493=CARTESIAN_POINT('',(352.,-20.4319279236933,176.468820695288));
#494=CARTESIAN_POINT('',(352.,-20.4319279236933,213.891447402518));
#495=CARTESIAN_POINT('',(352.,-20.4319279236933,204.535790725707));
#496=CARTESIAN_POINT('',(342.,-20.4319279236933,176.468820695288));
#497=CARTESIAN_POINT('',(352.,-20.4319279236933,176.468820695288));
#498=CARTESIAN_POINT('',(342.,-20.4319279236933,213.891447402518));
#499=CARTESIAN_POINT('',(342.,-20.4319279236933,213.891447402518));
#500=CARTESIAN_POINT('',(352.,-20.4319279236933,213.891447402518));
#501=CARTESIAN_POINT('Origin',(342.,-21.7066818888978,195.179123827165));
#502=CARTESIAN_POINT('Origin',(342.,-23.7314358541022,195.180134048903));
#503=CARTESIAN_POINT('Origin',(342.,-23.7314358541022,195.180134048903));
#504=CARTESIAN_POINT('',(342.,-21.2314358541022,195.180134048896));
#505=CARTESIAN_POINT('Origin',(342.,-23.7314358541022,195.180134048903));
#506=CARTESIAN_POINT('Origin',(342.,-23.7314358541022,195.180134048903));
#507=CARTESIAN_POINT('Origin',(352.,-23.7314358541022,195.180134048896));
#508=CARTESIAN_POINT('',(352.,-4.73143585410222,195.180134048896));
#509=CARTESIAN_POINT('Origin',(352.,-23.7314358541022,195.180134048896));
#510=CARTESIAN_POINT('Origin',(352.,-23.7314358541022,195.180134048896));
#511=CARTESIAN_POINT('Origin',(357.,-23.7314358541022,195.180134048896));
#512=CARTESIAN_POINT('',(357.,-21.2314358541022,195.180134048896));
#513=CARTESIAN_POINT('',(357.,-21.2314358541022,195.180134048896));
#514=CARTESIAN_POINT('Origin',(357.,-23.7314358541022,195.180134048896));
#515=CARTESIAN_POINT('Origin',(357.,-23.7314358541022,195.180134048896));
#516=CARTESIAN_POINT('',(357.,-4.73143585410222,195.180134048896));
#517=CARTESIAN_POINT('',(357.,-4.73143585410222,195.180134048896));
#518=CARTESIAN_POINT('Origin',(357.,-23.7314358541022,195.180134048896));
#519=CARTESIAN_POINT('Origin',(357.,-23.7314358541022,195.180134048896));
#520=UNCERTAINTY_MEASURE_WITH_UNIT(LENGTH_MEASURE(0.01),#524,
'DISTANCE_ACCURACY_VALUE',
'Maximum model space distance between geometric entities at asserted c
onnectivities');
#521=UNCERTAINTY_MEASURE_WITH_UNIT(LENGTH_MEASURE(0.01),#524,
'DISTANCE_ACCURACY_VALUE',
'Maximum model space distance between geometric entities at asserted c
onnectivities');
#522=(
GEOMETRIC_REPRESENTATION_CONTEXT(3)
GLOBAL_UNCERTAINTY_ASSIGNED_CONTEXT((#520))
GLOBAL_UNIT_ASSIGNED_CONTEXT((#524,#526,#527))
REPRESENTATION_CONTEXT('','3D')
);
#523=(
GEOMETRIC_REPRESENTATION_CONTEXT(3)
GLOBAL_UNCERTAINTY_ASSIGNED_CONTEXT((#521))
GLOBAL_UNIT_ASSIGNED_CONTEXT((#524,#526,#527))
REPRESENTATION_CONTEXT('','3D')
);
#524=(
LENGTH_UNIT()
NAMED_UNIT(*)
SI_UNIT(.MILLI.,.METRE.)
);
#525=(
LENGTH_UNIT()
NAMED_UNIT(*)
SI_UNIT($,.METRE.)
);
#526=(
NAMED_UNIT(*)
PLANE_ANGLE_UNIT()
SI_UNIT($,.RADIAN.)
);
#527=(
NAMED_UNIT(*)
SI_UNIT($,.STERADIAN.)
SOLID_ANGLE_UNIT()
);
#528=SHAPE_DEFINITION_REPRESENTATION(#529,#530);
#529=PRODUCT_DEFINITION_SHAPE('',$,#532);
#530=SHAPE_REPRESENTATION('',(#312),#522);
#531=PRODUCT_DEFINITION_CONTEXT('part definition',#536,'design');
#532=PRODUCT_DEFINITION('Temp Mount','Temp Mount',#533,#531);
#533=PRODUCT_DEFINITION_FORMATION('',$,#538);
#534=PRODUCT_RELATED_PRODUCT_CATEGORY('Temp Mount','Temp Mount',(#538));
#535=APPLICATION_PROTOCOL_DEFINITION('international standard',
'automotive_design',2009,#536);
#536=APPLICATION_CONTEXT(
'Core Data for Automotive Mechanical Design Process');
#537=PRODUCT_CONTEXT('part definition',#536,'mechanical');
#538=PRODUCT('Temp Mount','Temp Mount',$,(#537));
#539=PRESENTATION_STYLE_ASSIGNMENT((#540));
#540=SURFACE_STYLE_USAGE(.BOTH.,#541);
#541=SURFACE_SIDE_STYLE('',(#542));
#542=SURFACE_STYLE_FILL_AREA(#543);
#543=FILL_AREA_STYLE('Steel - Satin',(#544));
#544=FILL_AREA_STYLE_COLOUR('Steel - Satin',#545);
#545=COLOUR_RGB('Steel - Satin',0.627450980392157,0.627450980392157,0.627450980392157);
ENDSEC;
END-ISO-10303-21;
